<svg width="52" height="53" viewBox="0 0 52 53" fill="none" xmlns="http://www.w3.org/2000/svg">
<path d="M49.0935 0H34.5611C33.7902 0 33.0509 0.30878 32.5059 0.858413C31.9608 1.40805 31.6546 2.15351 31.6546 2.93081C31.6546 3.7081 31.9608 4.45357 32.5059 5.0032C33.0509 5.55283 33.7902 5.86161 34.5611 5.86161H38.9208V23.4465H24.5339C26.4564 20.9243 27.5037 17.8351 27.5148 14.654C27.5147 11.4282 26.4591 8.29257 24.5116 5.73337C22.5641 3.17418 19.8337 1.33447 16.7436 0.499568C13.6536 -0.335337 10.3767 -0.11878 7.42114 1.11565C4.4656 2.35009 1.99658 4.53341 0.397007 7.32702C0.203838 7.66031 0.0778894 8.02882 0.0264001 8.41135C-0.0250892 8.79389 -0.00110496 9.18291 0.0969747 9.55607C0.195054 9.92923 0.365296 10.2792 0.597917 10.5858C0.830537 10.8924 1.12095 11.1496 1.45247 11.3427C1.78399 11.5358 2.15007 11.6609 2.5297 11.7108C2.90932 11.7608 3.29498 11.7346 3.66454 11.6338C4.0341 11.533 4.38025 11.3595 4.68312 11.1234C4.98598 10.8873 5.23959 10.5931 5.42936 10.2578C6.19455 8.921 7.29524 7.81084 8.62078 7.03893C9.94633 6.26702 11.45 5.86055 12.9807 5.86038C14.5114 5.86021 16.0152 6.26635 17.3409 7.03797C18.6667 7.80959 19.7676 8.91951 20.5331 10.2562C21.2986 11.5928 21.7016 13.1091 21.7018 14.6526C21.7019 16.1961 21.2991 17.7125 20.5339 19.0493C19.7686 20.3861 18.6679 21.4962 17.3423 22.2681C16.0168 23.0399 14.513 23.4463 12.9823 23.4465C12.2115 23.4465 11.4722 23.7552 10.9271 24.3049C10.3821 24.8545 10.0758 25.6 10.0758 26.3773C10.0758 27.1546 10.3821 27.9 10.9271 28.4496C11.4722 28.9993 12.2115 29.3081 12.9823 29.3081C14.5128 29.3084 16.0163 29.7149 17.3417 30.4868C18.667 31.2587 19.7675 32.3687 20.5325 33.7054C21.2976 35.0421 21.7003 36.5582 21.7001 38.1016C21.6999 39.6449 21.2969 41.161 20.5315 42.4974C19.7661 43.8339 18.6653 44.9437 17.3398 45.7153C16.0143 46.4868 14.5107 46.893 12.9802 46.8929C11.4497 46.8928 9.94616 46.4865 8.62072 45.7148C7.29527 44.9431 6.19461 43.8332 5.42936 42.4967C5.04269 41.8262 4.40819 41.3377 3.66493 41.1382C2.92167 40.9387 2.13029 41.0445 1.46425 41.4324C0.798214 41.8203 0.311859 42.4587 0.111793 43.2075C-0.0882734 43.9564 0.0142705 44.7547 0.396948 45.4275C1.99651 48.2211 4.46553 50.4045 7.42108 51.6389C10.3766 52.8734 13.6536 53.09 16.7436 52.2551C19.8337 51.4201 22.5642 49.5804 24.5116 47.0212C26.4591 44.462 27.5147 41.3263 27.5148 38.1005C27.5037 34.9194 26.4564 31.8302 24.5339 29.3081H38.9208V49.8237C38.9208 50.601 39.227 51.3465 39.7721 51.8961C40.3172 52.4457 41.0564 52.7545 41.8273 52.7545C42.5981 52.7545 43.3374 52.4457 43.8825 51.8961C44.4276 51.3465 44.7338 50.601 44.7338 49.8237V5.86161H49.0935C49.8644 5.86161 50.6036 5.55283 51.1487 5.0032C51.6938 4.45357 52 3.7081 52 2.93081C52 2.15351 51.6938 1.40805 51.1487 0.858413C50.6036 0.30878 49.8644 0 49.0935 0Z" fill="#294C62"/>
</svg>
