<svg width="68" height="58" viewBox="0 0 68 58" fill="none" xmlns="http://www.w3.org/2000/svg">
<path d="M35.0007 14H7.66732C5.85501 14 4.11692 14.7112 2.83542 15.977C1.55392 17.2429 0.833984 18.9598 0.833984 20.75V34.25C0.833984 36.0402 1.55392 37.7571 2.83542 39.023C4.11692 40.2888 5.85501 41 7.66732 41H11.084V54.5C11.084 55.3951 11.444 56.2535 12.0847 56.8865C12.7255 57.5194 13.5945 57.875 14.5007 57.875H21.334C22.2401 57.875 23.1092 57.5194 23.7499 56.8865C24.3907 56.2535 24.7507 55.3951 24.7507 54.5V41H35.0007L52.084 54.5V0.5L35.0007 14ZM67.459 27.5C67.459 33.2712 64.179 38.5025 58.9173 41V14C64.1448 16.5312 67.459 21.7625 67.459 27.5Z" fill="white"/>
</svg>
