<svg width="94" height="85" viewBox="0 0 94 85" fill="none" xmlns="http://www.w3.org/2000/svg">
<path d="M35.25 34.5312C35.25 31.5978 32.6191 29.2188 29.375 29.2188H26.4375C19.9475 29.2188 14.6875 33.9751 14.6875 39.8438V47.8125C14.6875 53.6812 19.9475 58.4375 26.4375 58.4375H29.375C32.6191 58.4375 35.25 56.0585 35.25 53.125V34.5312ZM67.5625 58.4375C74.0525 58.4375 79.3125 53.6812 79.3125 47.8125V39.8438C79.3125 33.9751 74.0525 29.2188 67.5625 29.2188H64.625C61.3809 29.2188 58.75 31.5978 58.75 34.5312V53.125C58.75 56.0585 61.3809 58.4375 64.625 58.4375H67.5625ZM47 0C20.7791 0 0.840859 19.7276 0 42.5V45.1562C0 46.6238 1.31453 47.8125 2.9375 47.8125H5.875C7.49797 47.8125 8.8125 46.6238 8.8125 45.1562V42.5C8.8125 23.4597 25.9436 7.96875 47 7.96875C68.0564 7.96875 85.1875 23.4597 85.1875 42.5H85.1655C85.1802 42.9034 85.1875 70.0121 85.1875 70.0121C85.1875 73.8886 81.7121 77.0312 77.4252 77.0312H58.75C58.75 72.6302 54.8046 69.0625 49.9375 69.0625H44.0625C39.1954 69.0625 35.25 72.6302 35.25 77.0312C35.25 81.4323 39.1954 85 44.0625 85H77.4252C86.5791 85 94 78.2896 94 70.0121V42.5C93.1591 19.7276 73.2209 0 47 0Z" fill="#294C62"/>
</svg>
