<svg width="73" height="65" viewBox="0 0 73 65" fill="none" xmlns="http://www.w3.org/2000/svg">
<path d="M27.375 26.0258C27.375 23.8148 25.3319 22.0218 22.8125 22.0218H20.5312C15.4911 22.0218 11.4062 25.6066 11.4062 30.0298V36.0357C11.4062 40.4588 15.4911 44.0436 20.5312 44.0436H22.8125C25.3319 44.0436 27.375 42.2506 27.375 40.0397V26.0258ZM52.4688 44.0436C57.5089 44.0436 61.5938 40.4588 61.5938 36.0357V30.0298C61.5938 25.6066 57.5089 22.0218 52.4688 22.0218H50.1875C47.6681 22.0218 45.625 23.8148 45.625 26.0258V40.0397C45.625 42.2506 47.6681 44.0436 50.1875 44.0436H52.4688ZM36.5 0C16.137 0 0.653008 14.8685 0 32.0317V34.0337C0 35.1398 1.02086 36.0357 2.28125 36.0357H4.5625C5.82289 36.0357 6.84375 35.1398 6.84375 34.0337V32.0317C6.84375 17.6813 20.1477 6.00595 36.5 6.00595C52.8523 6.00595 66.1562 17.6813 66.1562 32.0317H66.1391C66.1506 32.3358 66.1562 52.7673 66.1562 52.7673C66.1562 55.6889 63.4572 58.0575 60.128 58.0575H45.625C45.625 54.7405 42.561 52.0516 38.7812 52.0516H34.2188C30.439 52.0516 27.375 54.7405 27.375 58.0575C27.375 61.3746 30.439 64.0635 34.2188 64.0635H60.128C67.237 64.0635 73 59.006 73 52.7673V32.0317C72.347 14.8685 56.863 0 36.5 0Z" fill="white"/>
</svg>
