<svg width="47" height="57" viewBox="0 0 47 57" fill="none" xmlns="http://www.w3.org/2000/svg">
<path d="M17.8319 8.67208L23.4128 0.177734L28.9937 8.67208C27.2951 8.15727 25.354 7.89986 23.4128 7.89986C21.4716 7.89986 19.5304 8.15727 17.8319 8.67208ZM36.7584 13.5628C39.4275 16.3942 41.6113 19.9979 42.3393 24.1163L46.4643 14.5924L36.7584 13.5628ZM6.4275 18.4534C6.67015 18.196 6.67015 18.196 6.4275 18.4534C6.67015 18.196 6.67015 18.196 6.67015 17.9386C7.64074 16.3942 8.85397 14.8498 10.0672 13.5628L0.361328 14.335L4.48633 23.8589C4.97162 22.0571 5.69956 19.9979 6.4275 18.4534ZM40.8834 37.2439C40.6407 37.7588 40.3981 38.2736 40.1554 38.531V39.0458C39.1849 40.8476 37.9716 42.1346 36.7584 43.6791L46.7069 42.9068L42.5819 33.3829C42.0966 34.6699 41.6113 35.9569 40.8834 37.2439ZM6.9128 39.3032C6.9128 39.0458 6.67015 39.0458 6.67015 38.7884C6.4275 38.531 6.4275 38.531 6.4275 38.2736C6.18486 37.7588 5.94221 37.5014 5.94221 36.9865C5.45692 35.6995 4.97162 34.4125 4.72898 33.1255L0.603975 42.6494L10.5525 43.4216C8.85397 42.1346 7.88339 40.8476 6.9128 39.3032ZM24.8687 49.0845H21.9569C20.501 49.0845 19.0451 48.5697 17.8319 48.3123L23.4128 56.8067L28.9937 48.3123C27.7804 48.5697 26.3246 48.8271 24.8687 49.0845ZM33.604 17.6812C28.0231 11.7609 18.8025 11.7609 12.979 17.6812C7.15544 23.6015 7.39809 33.3829 12.979 39.5606C18.5599 45.7383 27.7804 45.4809 33.604 39.5606C39.4275 33.6403 39.4275 23.6015 33.604 17.6812ZM14.9201 37.5014L20.0157 24.8885L32.1481 19.2256L27.0525 31.8385L14.9201 37.5014ZM25.1113 30.294C24.1407 31.3236 22.6849 31.3236 21.7143 30.294C20.7437 29.2644 20.7437 27.72 21.7143 26.6904C22.6849 25.6608 24.1407 25.6608 25.1113 26.6904C26.0819 27.72 26.0819 29.2644 25.1113 30.294Z" fill="#294C62"/>
</svg>
