<svg width="78" height="70" viewBox="0 0 78 70" fill="none" xmlns="http://www.w3.org/2000/svg">
<path d="M16.0535 14.7656C10.2242 19.9329 6.61719 27.07 6.61719 34.9493C6.61719 42.8287 10.2242 49.9658 16.0535 55.133L20.5945 51.1077C15.9247 46.9967 13.0584 41.2871 13.0584 34.9493C13.0584 28.6401 15.9247 22.9019 20.5945 18.7909L16.0535 14.7656ZM61.5926 14.7656L57.0516 18.7909C61.7215 22.9019 64.5878 28.6401 64.5878 34.9493C64.5878 41.2871 61.7215 46.9967 57.0516 51.1077L61.5926 55.133C67.4219 49.9658 71.029 42.8287 71.029 34.9493C71.029 27.07 67.4219 19.9329 61.5926 14.7656ZM25.1678 22.8448C21.6573 25.9566 19.4995 30.2388 19.4995 34.9493C19.4995 39.6598 21.6573 43.9421 25.1678 47.0538L29.7088 43.0285C27.39 40.973 25.9407 38.1182 25.9407 34.9493C25.9407 31.7805 27.39 28.9256 29.7088 26.8701L25.1678 22.8448ZM52.4784 22.8448L47.9373 26.8701C50.2562 28.9256 51.7054 31.7805 51.7054 34.9493C51.7054 38.1182 50.2562 40.973 47.9373 43.0285L52.4784 47.0538C55.9888 43.9421 58.1466 39.6598 58.1466 34.9493C58.1466 30.2388 55.9888 25.9566 52.4784 22.8448ZM38.8231 29.2397C37.1148 29.2397 35.4764 29.8412 34.2685 30.912C33.0605 31.9828 32.3819 33.435 32.3819 34.9493C32.3819 36.4636 33.0605 37.9159 34.2685 38.9867C35.4764 40.0575 37.1148 40.659 38.8231 40.659C40.5314 40.659 42.1697 40.0575 43.3777 38.9867C44.5856 37.9159 45.2643 36.4636 45.2643 34.9493C45.2643 33.435 44.5856 31.9828 43.3777 30.912C42.1697 29.8412 40.5314 29.2397 38.8231 29.2397Z" fill="#294C62"/>
</svg>
