<svg width="103" height="81" viewBox="0 0 103 81" fill="none" xmlns="http://www.w3.org/2000/svg">
<path fill-rule="evenodd" clip-rule="evenodd" d="M64.9481 0H49.2393V13.2984V26.8992V38.3843H43.6536H29.612C29.7304 38.1788 29.8459 37.9713 29.9582 37.7619C31.7663 34.392 32.7218 30.6247 32.74 26.7938C32.7581 22.9629 31.8384 19.1867 30.0623 15.7995C28.2862 12.4123 25.7086 9.51879 22.5577 7.37524C19.4068 5.2317 15.7799 3.90428 11.9983 3.51058C10.0884 3.31174 9.51369 3.14584 8.93616 3.13535C8.37018 3.12508 7.80149 3.26407 5.97075 3.66762L6.54195 19.0859C7.78171 18.5754 9.12727 18.3809 10.4594 18.5196C11.7916 18.6583 13.0693 19.1259 14.1793 19.881C15.2893 20.6361 16.1973 21.6555 16.823 22.8487C17.4487 24.0419 17.7727 25.3722 17.7663 26.7218C17.7599 28.0713 17.4233 29.3984 16.7863 30.5856C16.1494 31.7727 15.2317 32.7833 14.1146 33.5277C12.9975 34.2721 11.7155 34.7274 10.382 34.8532C10.1345 34.8766 9.68832 34.9304 9.11777 34.9992C6.61431 35.3009 1.71717 35.8912 0.711508 35.4658L0.434725 42.7505L0 50.145C3.82492 50.7435 8.60079 54.1892 11.0746 56.6901C13.5485 59.1909 18.1967 77.7158 18.157 80.9438L33.9926 80.9437C34.038 77.2616 31.9747 71.1757 29.9124 65.0931C28.3005 60.3386 26.6893 55.5862 26.0862 51.9851H43.6536H49.2393V81H64.9481V77.0709H87.2898V81H102.999V0H87.2898V13.2984H64.9481V0ZM87.2898 51.9851V63.4702H64.9481V51.9851H87.2898ZM87.2898 26.8992V38.3843H64.9481V26.8992H87.2898Z" fill="white"/>
</svg>
