<svg width="78" height="66" viewBox="0 0 78 66" fill="none" xmlns="http://www.w3.org/2000/svg">
<path d="M39 5.5C41.5859 5.5 44.0658 6.36919 45.8943 7.91637C47.7228 9.46354 48.75 11.562 48.75 13.75V30.25C48.75 32.438 47.7228 34.5365 45.8943 36.0836C44.0658 37.6308 41.5859 38.5 39 38.5C36.4141 38.5 33.9342 37.6308 32.1057 36.0836C30.2772 34.5365 29.25 32.438 29.25 30.25V13.75C29.25 11.562 30.2772 9.46354 32.1057 7.91637C33.9342 6.36919 36.4141 5.5 39 5.5ZM61.75 30.25C61.75 39.9575 53.2675 47.96 42.25 49.3075V57.75H35.75V49.3075C24.7325 47.96 16.25 39.9575 16.25 30.25H22.75C22.75 33.8967 24.462 37.3941 27.5095 39.9727C30.557 42.5513 34.6902 44 39 44C43.3098 44 47.443 42.5513 50.4905 39.9727C53.538 37.3941 55.25 33.8967 55.25 30.25H61.75Z" fill="#294C62"/>
</svg>
