<svg width="66" height="73" viewBox="0 0 66 73" fill="none" xmlns="http://www.w3.org/2000/svg">
<g clip-path="url(#clip0_758810_451)">
<path d="M32.8821 24.4475C32.8821 27.6094 31.7294 30.6418 29.6775 32.8776C27.6257 35.1133 24.8427 36.3694 21.9409 36.3694C19.0392 36.3694 16.2562 35.1133 14.2044 32.8776C12.1525 30.6418 10.9998 27.6094 10.9998 24.4475C10.9998 21.2856 12.1525 18.2533 14.2044 16.0175C16.2562 13.7817 19.0392 12.5256 21.9409 12.5256C24.8427 12.5256 27.6257 13.7817 29.6775 16.0175C31.7294 18.2533 32.8821 21.2856 32.8821 24.4475ZM43.8233 54.2522V60.2132H0.0585938V54.2522C0.0585938 47.6654 9.85095 42.3303 21.9409 42.3303C34.0309 42.3303 43.8233 47.6654 43.8233 54.2522ZM53.3968 43.8206V48.2913H49.2939V43.8206H53.3968ZM47.9262 28.9182H43.8233V27.428C43.8233 25.0566 44.6878 22.7823 46.2267 21.1055C47.7656 19.4286 49.8528 18.4866 52.0292 18.4866C54.2055 18.4866 56.2927 19.4286 57.8316 21.1055C59.3705 22.7823 60.2351 25.0566 60.2351 27.428C60.2351 30.319 58.8674 33.0313 56.7065 34.6109L55.8859 35.1772C54.3268 36.3694 53.3968 38.1875 53.3968 40.244V40.8401H49.2939V40.244C49.2939 36.6973 50.9351 33.3889 53.643 31.4516L54.4362 30.8853C55.503 30.1104 56.1321 28.8288 56.1321 27.428C56.1321 26.2423 55.6998 25.1051 54.9304 24.2667C54.1609 23.4283 53.1173 22.9573 52.0292 22.9573C50.941 22.9573 49.8974 23.4283 49.128 24.2667C48.3585 25.1051 47.9262 26.2423 47.9262 27.428V28.9182Z" fill="#294C62"/>
</g>
<defs>
<clipPath id="clip0_758810_451">
<rect width="65.6471" height="71.5313" fill="white" transform="translate(0.0585938 0.60376)"/>
</clipPath>
</defs>
</svg>
